<mxfile host="app.diagrams.net" modified="2023-10-17T17:52:58.370Z" agent="Mozilla/5.0 (Windows NT 10.0; Win64; x64) AppleWebKit/537.36 (KHTML, like Gecko) Chrome/118.0.0.0 Safari/537.36" etag="xvbwsJ8pB14Ab8wr53Ja" version="22.0.4" type="github">
  <diagram id="C5RBs43oDa-KdzZeNtuy" name="Page-1">
    <mxGraphModel dx="1100" dy="548" grid="0" gridSize="10" guides="1" tooltips="1" connect="1" arrows="1" fold="1" page="1" pageScale="1" pageWidth="827" pageHeight="1169" background="#000000" math="0" shadow="0">
      <root>
        <mxCell id="WIyWlLk6GJQsqaUBKTNV-0" />
        <mxCell id="WIyWlLk6GJQsqaUBKTNV-1" parent="WIyWlLk6GJQsqaUBKTNV-0" />
        <mxCell id="WIyWlLk6GJQsqaUBKTNV-2" value="" style="rounded=0;html=1;jettySize=auto;orthogonalLoop=1;fontSize=11;endArrow=block;endFill=0;endSize=8;strokeWidth=1;shadow=0;labelBackgroundColor=none;edgeStyle=orthogonalEdgeStyle;fontColor=default;strokeColor=#736CA8;entryX=0.5;entryY=0;entryDx=0;entryDy=0;" parent="WIyWlLk6GJQsqaUBKTNV-1" target="0tFp6B8CB-egg3uorCXA-3" edge="1">
          <mxGeometry relative="1" as="geometry">
            <mxPoint x="219.62" y="87" as="sourcePoint" />
            <mxPoint x="220" y="135" as="targetPoint" />
          </mxGeometry>
        </mxCell>
        <mxCell id="WIyWlLk6GJQsqaUBKTNV-8" value="&lt;font color=&quot;#ffcce6&quot;&gt;Yes&lt;/font&gt;" style="rounded=0;html=1;jettySize=auto;orthogonalLoop=1;fontSize=11;endArrow=block;endFill=0;endSize=8;strokeWidth=1;shadow=0;labelBackgroundColor=none;edgeStyle=orthogonalEdgeStyle;fontColor=default;strokeColor=#736CA8;" parent="WIyWlLk6GJQsqaUBKTNV-1" source="WIyWlLk6GJQsqaUBKTNV-10" edge="1">
          <mxGeometry x="0.0102" y="18" relative="1" as="geometry">
            <mxPoint as="offset" />
            <mxPoint x="220" y="443" as="targetPoint" />
          </mxGeometry>
        </mxCell>
        <mxCell id="WIyWlLk6GJQsqaUBKTNV-10" value="Absolute Path?" style="rhombus;whiteSpace=wrap;html=1;shadow=0;fontFamily=Helvetica;fontSize=15;align=center;strokeWidth=1;spacing=6;spacingTop=-4;labelBackgroundColor=none;fillColor=#5D7F99;strokeColor=#D0CEE2;fontColor=#1A1A1A;" parent="WIyWlLk6GJQsqaUBKTNV-1" vertex="1">
          <mxGeometry x="165.99" y="255" width="107.37" height="102" as="geometry" />
        </mxCell>
        <mxCell id="0tFp6B8CB-egg3uorCXA-2" value="&lt;font style=&quot;font-size: 20px;&quot;&gt;Md-Links&lt;/font&gt;" style="ellipse;whiteSpace=wrap;html=1;strokeColor=#FF66B3;fontColor=#1A1A1A;fillColor=#5D7F99;" parent="WIyWlLk6GJQsqaUBKTNV-1" vertex="1">
          <mxGeometry x="164.99" y="13" width="110" height="71" as="geometry" />
        </mxCell>
        <mxCell id="0tFp6B8CB-egg3uorCXA-3" value="&amp;nbsp;Find Path" style="rounded=1;whiteSpace=wrap;html=1;strokeColor=#D0CEE2;fontColor=#1A1A1A;fillColor=#5D7F99;fontSize=16;" parent="WIyWlLk6GJQsqaUBKTNV-1" vertex="1">
          <mxGeometry x="165.99" y="143" width="107.99" height="45" as="geometry" />
        </mxCell>
        <mxCell id="0tFp6B8CB-egg3uorCXA-6" value="" style="rounded=0;html=1;jettySize=auto;orthogonalLoop=1;fontSize=11;endArrow=block;endFill=0;endSize=8;strokeWidth=1;shadow=0;labelBackgroundColor=none;edgeStyle=orthogonalEdgeStyle;fontColor=default;strokeColor=#736CA8;" parent="WIyWlLk6GJQsqaUBKTNV-1" edge="1">
          <mxGeometry relative="1" as="geometry">
            <mxPoint x="219.42" y="190" as="sourcePoint" />
            <mxPoint x="220" y="252" as="targetPoint" />
          </mxGeometry>
        </mxCell>
        <mxCell id="0tFp6B8CB-egg3uorCXA-8" value="" style="rounded=0;html=1;jettySize=auto;orthogonalLoop=1;fontSize=11;endArrow=block;endFill=0;endSize=8;strokeWidth=1;shadow=0;labelBackgroundColor=none;edgeStyle=orthogonalEdgeStyle;fontColor=default;strokeColor=#736CA8;exitX=0;exitY=0.5;exitDx=0;exitDy=0;" parent="WIyWlLk6GJQsqaUBKTNV-1" source="WIyWlLk6GJQsqaUBKTNV-10" edge="1">
          <mxGeometry relative="1" as="geometry">
            <mxPoint x="274.99" y="306" as="sourcePoint" />
            <mxPoint x="89" y="369" as="targetPoint" />
          </mxGeometry>
        </mxCell>
        <mxCell id="0tFp6B8CB-egg3uorCXA-10" value="&lt;font color=&quot;#ffcce6&quot;&gt;No&lt;/font&gt;" style="text;strokeColor=none;align=center;fillColor=none;html=1;verticalAlign=middle;whiteSpace=wrap;rounded=0;fontColor=#1A1A1A;" parent="WIyWlLk6GJQsqaUBKTNV-1" vertex="1">
          <mxGeometry x="97" y="284" width="40" height="21" as="geometry" />
        </mxCell>
        <mxCell id="0tFp6B8CB-egg3uorCXA-13" value="Resolve&amp;nbsp;&lt;br style=&quot;font-size: 13px;&quot;&gt;Transform to absolute" style="rounded=1;whiteSpace=wrap;html=1;strokeColor=#D0CEE2;fontColor=#1A1A1A;fillColor=#5D7F99;fontSize=13;" parent="WIyWlLk6GJQsqaUBKTNV-1" vertex="1">
          <mxGeometry x="26.00000000000001" y="370" width="123" height="44" as="geometry" />
        </mxCell>
        <mxCell id="0tFp6B8CB-egg3uorCXA-19" value="" style="rounded=0;html=1;jettySize=auto;orthogonalLoop=1;fontSize=11;endArrow=block;endFill=0;endSize=8;strokeWidth=1;shadow=0;labelBackgroundColor=none;edgeStyle=orthogonalEdgeStyle;fontColor=default;strokeColor=#736CA8;exitX=0.5;exitY=1;exitDx=0;exitDy=0;entryX=0;entryY=0.5;entryDx=0;entryDy=0;" parent="WIyWlLk6GJQsqaUBKTNV-1" source="0tFp6B8CB-egg3uorCXA-13" target="0tFp6B8CB-egg3uorCXA-20" edge="1">
          <mxGeometry x="-0.0037" y="-22" relative="1" as="geometry">
            <mxPoint as="offset" />
            <mxPoint x="345.63" y="411" as="sourcePoint" />
            <mxPoint x="85" y="507" as="targetPoint" />
            <Array as="points">
              <mxPoint x="85" y="414" />
              <mxPoint x="85" y="498" />
            </Array>
          </mxGeometry>
        </mxCell>
        <mxCell id="0tFp6B8CB-egg3uorCXA-20" value="This path exist?" style="rhombus;whiteSpace=wrap;html=1;shadow=0;fontFamily=Helvetica;fontSize=15;align=center;strokeWidth=1;spacing=6;spacingTop=-4;labelBackgroundColor=none;fillColor=#5D7F99;strokeColor=#D0CEE2;fontColor=#1A1A1A;" parent="WIyWlLk6GJQsqaUBKTNV-1" vertex="1">
          <mxGeometry x="165.99" y="447" width="107.37" height="102" as="geometry" />
        </mxCell>
        <mxCell id="0tFp6B8CB-egg3uorCXA-21" value="&lt;font color=&quot;#ffcce6&quot;&gt;Yes&lt;/font&gt;" style="rounded=0;html=1;jettySize=auto;orthogonalLoop=1;fontSize=11;endArrow=block;endFill=0;endSize=8;strokeWidth=1;shadow=0;labelBackgroundColor=none;edgeStyle=orthogonalEdgeStyle;fontColor=default;strokeColor=#736CA8;" parent="WIyWlLk6GJQsqaUBKTNV-1" edge="1">
          <mxGeometry x="0.0102" y="18" relative="1" as="geometry">
            <mxPoint as="offset" />
            <mxPoint x="219.7" y="549" as="sourcePoint" />
            <mxPoint x="219.7" y="635" as="targetPoint" />
          </mxGeometry>
        </mxCell>
        <mxCell id="0tFp6B8CB-egg3uorCXA-22" value="It is a markdown file?" style="rhombus;whiteSpace=wrap;html=1;shadow=0;fontFamily=Helvetica;fontSize=15;align=center;strokeWidth=1;spacing=6;spacingTop=-4;labelBackgroundColor=none;fillColor=#5D7F99;strokeColor=#D0CEE2;fontColor=#1A1A1A;" parent="WIyWlLk6GJQsqaUBKTNV-1" vertex="1">
          <mxGeometry x="166.61" y="636" width="107.37" height="102" as="geometry" />
        </mxCell>
        <mxCell id="0tFp6B8CB-egg3uorCXA-23" value="&lt;font color=&quot;#ffcce6&quot;&gt;Yes&lt;/font&gt;" style="rounded=0;html=1;jettySize=auto;orthogonalLoop=1;fontSize=11;endArrow=block;endFill=0;endSize=8;strokeWidth=1;shadow=0;labelBackgroundColor=none;edgeStyle=orthogonalEdgeStyle;fontColor=default;strokeColor=#736CA8;" parent="WIyWlLk6GJQsqaUBKTNV-1" edge="1">
          <mxGeometry x="0.0102" y="18" relative="1" as="geometry">
            <mxPoint as="offset" />
            <mxPoint x="219.76999999999998" y="740" as="sourcePoint" />
            <mxPoint x="219.76999999999998" y="826" as="targetPoint" />
          </mxGeometry>
        </mxCell>
        <mxCell id="0tFp6B8CB-egg3uorCXA-24" value="Find the &lt;br style=&quot;font-size: 14px;&quot;&gt;link in &lt;br style=&quot;font-size: 14px;&quot;&gt;MD file" style="rhombus;whiteSpace=wrap;html=1;shadow=0;fontFamily=Helvetica;fontSize=14;align=center;strokeWidth=1;spacing=6;spacingTop=-4;labelBackgroundColor=none;fillColor=#5D7F99;strokeColor=#D0CEE2;fontColor=#1A1A1A;" parent="WIyWlLk6GJQsqaUBKTNV-1" vertex="1">
          <mxGeometry x="165.99" y="828" width="107.37" height="102" as="geometry" />
        </mxCell>
        <mxCell id="0tFp6B8CB-egg3uorCXA-27" value="Create an object &lt;br style=&quot;font-size: 17px;&quot;&gt;with array" style="rounded=0;whiteSpace=wrap;html=1;strokeColor=#000000;fontColor=#1A1A1A;fillColor=#5D7F99;labelBorderColor=none;dashed=1;fontSize=17;" parent="WIyWlLk6GJQsqaUBKTNV-1" vertex="1">
          <mxGeometry x="379" y="1030" width="120" height="78" as="geometry" />
        </mxCell>
        <mxCell id="0tFp6B8CB-egg3uorCXA-29" value="&lt;font color=&quot;#ffcce6&quot; style=&quot;font-size: 11px;&quot;&gt;Yes&lt;/font&gt;" style="text;strokeColor=none;align=center;fillColor=none;html=1;verticalAlign=middle;whiteSpace=wrap;rounded=0;fontColor=#1A1A1A;fontSize=11;" parent="WIyWlLk6GJQsqaUBKTNV-1" vertex="1">
          <mxGeometry x="220" y="208" width="40" height="21" as="geometry" />
        </mxCell>
        <mxCell id="0tFp6B8CB-egg3uorCXA-31" value="" style="rounded=0;html=1;jettySize=auto;orthogonalLoop=1;fontSize=11;endArrow=block;endFill=0;endSize=8;strokeWidth=1;shadow=0;labelBackgroundColor=none;edgeStyle=orthogonalEdgeStyle;fontColor=default;strokeColor=#736CA8;" parent="WIyWlLk6GJQsqaUBKTNV-1" edge="1">
          <mxGeometry relative="1" as="geometry">
            <mxPoint x="273.98" y="166" as="sourcePoint" />
            <mxPoint x="652" y="201" as="targetPoint" />
          </mxGeometry>
        </mxCell>
        <mxCell id="0tFp6B8CB-egg3uorCXA-32" value="Route not found" style="shape=parallelogram;perimeter=parallelogramPerimeter;whiteSpace=wrap;html=1;fixedSize=1;strokeColor=#D0CEE2;fontColor=#1A1A1A;fillColor=#5D7F99;fontSize=17;" parent="WIyWlLk6GJQsqaUBKTNV-1" vertex="1">
          <mxGeometry x="590" y="202" width="120" height="60" as="geometry" />
        </mxCell>
        <mxCell id="0tFp6B8CB-egg3uorCXA-33" value="" style="rounded=0;html=1;jettySize=auto;orthogonalLoop=1;fontSize=11;endArrow=block;endFill=0;endSize=8;strokeWidth=1;shadow=0;labelBackgroundColor=none;edgeStyle=orthogonalEdgeStyle;fontColor=default;strokeColor=#736CA8;entryX=0.103;entryY=0.446;entryDx=0;entryDy=0;entryPerimeter=0;" parent="WIyWlLk6GJQsqaUBKTNV-1" target="0tFp6B8CB-egg3uorCXA-34" edge="1">
          <mxGeometry relative="1" as="geometry">
            <mxPoint x="274.99" y="687" as="sourcePoint" />
            <mxPoint x="570" y="707" as="targetPoint" />
          </mxGeometry>
        </mxCell>
        <mxCell id="0tFp6B8CB-egg3uorCXA-34" value="Isn&#39;t a markdown&lt;br style=&quot;font-size: 17px;&quot;&gt;&amp;nbsp;file" style="shape=parallelogram;perimeter=parallelogramPerimeter;whiteSpace=wrap;html=1;fixedSize=1;strokeColor=#D0CEE2;fontColor=#1A1A1A;fillColor=#5D7F99;fontSize=17;" parent="WIyWlLk6GJQsqaUBKTNV-1" vertex="1">
          <mxGeometry x="590" y="660" width="120" height="60" as="geometry" />
        </mxCell>
        <mxCell id="0tFp6B8CB-egg3uorCXA-35" value="&lt;span style=&quot;font-size: 20px;&quot;&gt;End&lt;/span&gt;" style="ellipse;whiteSpace=wrap;html=1;strokeColor=#FF66B3;fontColor=#1A1A1A;fillColor=#5D7F99;" parent="WIyWlLk6GJQsqaUBKTNV-1" vertex="1">
          <mxGeometry x="595" y="1033.5" width="110" height="71" as="geometry" />
        </mxCell>
        <mxCell id="0tFp6B8CB-egg3uorCXA-36" value="" style="rounded=0;html=1;jettySize=auto;orthogonalLoop=1;fontSize=11;endArrow=block;endFill=0;endSize=8;strokeWidth=1;shadow=0;labelBackgroundColor=none;edgeStyle=orthogonalEdgeStyle;fontColor=default;strokeColor=#736CA8;entryX=0.5;entryY=0;entryDx=0;entryDy=0;" parent="WIyWlLk6GJQsqaUBKTNV-1" target="0tFp6B8CB-egg3uorCXA-34" edge="1">
          <mxGeometry relative="1" as="geometry">
            <mxPoint x="649.29" y="262" as="sourcePoint" />
            <mxPoint x="649.6700000000001" y="318" as="targetPoint" />
          </mxGeometry>
        </mxCell>
        <mxCell id="0tFp6B8CB-egg3uorCXA-37" value="" style="rounded=0;html=1;jettySize=auto;orthogonalLoop=1;fontSize=11;endArrow=block;endFill=0;endSize=8;strokeWidth=1;shadow=0;labelBackgroundColor=none;edgeStyle=orthogonalEdgeStyle;fontColor=default;strokeColor=#736CA8;" parent="WIyWlLk6GJQsqaUBKTNV-1" edge="1">
          <mxGeometry relative="1" as="geometry">
            <mxPoint x="649.29" y="723" as="sourcePoint" />
            <mxPoint x="650" y="1032" as="targetPoint" />
          </mxGeometry>
        </mxCell>
        <mxCell id="0tFp6B8CB-egg3uorCXA-38" value="" style="rounded=0;html=1;jettySize=auto;orthogonalLoop=1;fontSize=11;endArrow=block;endFill=0;endSize=8;strokeWidth=1;shadow=0;labelBackgroundColor=none;edgeStyle=orthogonalEdgeStyle;fontColor=default;strokeColor=#736CA8;entryX=0.01;entryY=0.598;entryDx=0;entryDy=0;entryPerimeter=0;" parent="WIyWlLk6GJQsqaUBKTNV-1" edge="1">
          <mxGeometry x="-0.3862" y="24" relative="1" as="geometry">
            <mxPoint as="offset" />
            <mxPoint x="500.9" y="1068.85" as="sourcePoint" />
            <mxPoint x="594.9999999999999" y="1068.378" as="targetPoint" />
            <Array as="points">
              <mxPoint x="521.9" y="1068.92" />
            </Array>
          </mxGeometry>
        </mxCell>
        <mxCell id="0tFp6B8CB-egg3uorCXA-39" value="&lt;font color=&quot;#ffcce6&quot;&gt;No&lt;/font&gt;" style="text;strokeColor=none;align=center;fillColor=none;html=1;verticalAlign=middle;whiteSpace=wrap;rounded=0;fontColor=#1A1A1A;" parent="WIyWlLk6GJQsqaUBKTNV-1" vertex="1">
          <mxGeometry x="419" y="143" width="40" height="21" as="geometry" />
        </mxCell>
        <mxCell id="0tFp6B8CB-egg3uorCXA-41" value="&lt;font color=&quot;#ffcce6&quot;&gt;No&lt;/font&gt;" style="text;strokeColor=none;align=center;fillColor=none;html=1;verticalAlign=middle;whiteSpace=wrap;rounded=0;fontColor=#1A1A1A;" parent="WIyWlLk6GJQsqaUBKTNV-1" vertex="1">
          <mxGeometry x="419" y="663" width="40" height="21" as="geometry" />
        </mxCell>
        <mxCell id="k9QYZpROHTfmStdRLKvX-1" value="&lt;font color=&quot;#ffcce6&quot;&gt;Yes&lt;/font&gt;" style="rounded=0;html=1;jettySize=auto;orthogonalLoop=1;fontSize=11;endArrow=block;endFill=0;endSize=8;strokeWidth=1;shadow=0;labelBackgroundColor=none;edgeStyle=orthogonalEdgeStyle;fontColor=default;strokeColor=#736CA8;" edge="1" parent="WIyWlLk6GJQsqaUBKTNV-1">
          <mxGeometry x="0.0102" y="18" relative="1" as="geometry">
            <mxPoint as="offset" />
            <mxPoint x="218.74999999999997" y="932" as="sourcePoint" />
            <mxPoint x="218.74999999999997" y="1018" as="targetPoint" />
          </mxGeometry>
        </mxCell>
        <mxCell id="k9QYZpROHTfmStdRLKvX-2" value="Read a file &lt;br&gt;and get links" style="rhombus;whiteSpace=wrap;html=1;shadow=0;fontFamily=Helvetica;fontSize=14;align=center;strokeWidth=1;spacing=6;spacingTop=-4;labelBackgroundColor=none;fillColor=#5D7F99;strokeColor=#D0CEE2;fontColor=#1A1A1A;" vertex="1" parent="WIyWlLk6GJQsqaUBKTNV-1">
          <mxGeometry x="164.99" y="1018" width="107.37" height="102" as="geometry" />
        </mxCell>
        <mxCell id="k9QYZpROHTfmStdRLKvX-3" value="" style="rounded=0;html=1;jettySize=auto;orthogonalLoop=1;fontSize=11;endArrow=block;endFill=0;endSize=8;strokeWidth=1;shadow=0;labelBackgroundColor=none;edgeStyle=orthogonalEdgeStyle;fontColor=default;strokeColor=#736CA8;entryX=0;entryY=0.5;entryDx=0;entryDy=0;" edge="1" parent="WIyWlLk6GJQsqaUBKTNV-1" target="0tFp6B8CB-egg3uorCXA-27">
          <mxGeometry x="-0.3862" y="24" relative="1" as="geometry">
            <mxPoint as="offset" />
            <mxPoint x="274.99" y="1068.85" as="sourcePoint" />
            <mxPoint x="369.0899999999999" y="1068.378" as="targetPoint" />
            <Array as="points" />
          </mxGeometry>
        </mxCell>
      </root>
    </mxGraphModel>
  </diagram>
</mxfile>
